<svg id="Capa_1" enable-background="new 0 0 512.044 512.044" height="512" viewBox="0 0 512.044 512.044" width="512" fill="white" xmlns="http://www.w3.org/2000/svg"><g><g><g><g><g><circle cx="118.909" cy="193.554" r="10"/></g><g><circle cx="466.933" cy="193.554" r="10"/></g></g><g><g><circle cx="118.909" cy="318.49" r="10"/></g><g><circle cx="466.933" cy="318.49" r="10"/></g></g></g></g><g><path d="m497.629 152.56h-302.426c-4.142 0-7.5 3.357-7.5 7.5s3.358 7.5 7.5 7.5h301.841v108.141c0 4.143 3.358 7.5 7.5 7.5s7.5-3.357 7.5-7.5v-108.726c0-7.948-6.466-14.415-14.415-14.415z"/><path d="m504.544 302.926c-4.142 0-7.5 3.357-7.5 7.5v34.058h-408.247v-176.924h71.551c4.142 0 7.5-3.357 7.5-7.5s-3.358-7.5-7.5-7.5h-72.136c-7.949 0-14.415 6.467-14.415 14.415v15.362h-22.989v-113.701c0-6.177-5.025-11.201-11.201-11.201h-28.406c-6.176 0-11.201 5.024-11.201 11.201v374.771c0 6.177 5.025 11.201 11.201 11.201h28.406c6.176 0 11.201-5.024 11.201-11.201v-113.7h22.989v15.362c0 7.948 6.466 14.415 14.415 14.415h409.417c7.948 0 14.415-6.467 14.415-14.415v-34.643c0-4.142-3.358-7.5-7.5-7.5zm-468.736 136.683h-20.808v-367.174h20.808zm37.989-124.902h-22.989v-117.37h22.989z"/><circle cx="118.909" cy="193.554" r="10"/><circle cx="466.933" cy="193.554" r="10"/><circle cx="118.909" cy="318.49" r="10"/><circle cx="466.933" cy="318.49" r="10"/><path d="m320.14 285.198 3.118-8.186h21.631l3.081 8.165c1.134 3.003 3.987 4.854 7.019 4.854.879 0 1.775-.156 2.646-.485 3.875-1.462 5.832-5.789 4.369-9.665l-19.726-52.27c-.026-.069-.053-.138-.082-.206-1.348-3.275-4.506-5.391-8.047-5.391-.003 0-.006 0-.009 0-3.544.004-6.702 2.126-8.044 5.407-.023.057-.046.113-.067.171l-19.907 52.268c-1.474 3.87.468 8.203 4.339 9.678 3.874 1.475 8.205-.468 9.679-4.34zm13.983-36.714 5.105 13.528h-10.258z"/><path d="m145.796 282.443c-.023-4.142-3.394-7.501-7.542-7.458-3.354.019-7.523.036-11.022.042v-45.512c0-4.143-3.358-7.5-7.5-7.5s-7.5 3.357-7.5 7.5v52.97c0 3.652 2.631 6.773 6.231 7.392.539.093.913.157 6.835.157 2.85 0 6.985-.015 13.04-.049 4.142-.024 7.481-3.4 7.458-7.542z"/><path d="m159.25 229.515v53.014c0 4.143 3.358 7.5 7.5 7.5s7.5-3.357 7.5-7.5v-53.014c0-4.143-3.358-7.5-7.5-7.5s-7.5 3.358-7.5 7.5z"/><path d="m195.203 290.029h.033s14.155-.063 18.056-.063c12.004 0 21.77-9.766 21.77-21.77 0-6.565-2.926-12.457-7.537-16.452 1.751-2.943 2.776-6.366 2.776-10.032 0-10.861-8.837-19.698-19.699-19.698h-15.399c-4.142 0-7.5 3.357-7.5 7.5v53.014c0 1.995.795 3.907 2.208 5.315 1.406 1.401 3.309 2.186 5.292 2.186zm7.5-53.014h7.899c2.591 0 4.699 2.107 4.699 4.698s-2.108 4.699-4.699 4.699c-1.111 0-7.899.014-7.899.014zm0 24.42c.838-.003 10.589-.009 10.589-.009 3.733 0 6.77 3.037 6.77 6.771 0 3.732-3.037 6.77-6.77 6.77-1.967 0-6.533.016-10.589.031z"/><path d="m438.66 225.415c-2.265-3.468-6.912-4.442-10.38-2.179-3.468 2.265-4.444 6.912-2.179 10.38l15.708 24.056-.061 24.838c-.01 4.143 3.339 7.509 7.481 7.519h.019c4.133 0 7.489-3.346 7.5-7.481l.061-24.864 15.586-23.943c2.26-3.472 1.277-8.117-2.194-10.377-3.47-2.26-8.117-1.278-10.377 2.193l-10.519 16.159z"/><path d="m292.178 243.292c0-11.732-9.895-21.277-22.057-21.277h-14.088c-.003 0-.006 0-.009 0s-.006 0-.008 0c-4.142 0-7.5 3.357-7.5 7.5v53.014c0 4.143 3.358 7.5 7.5 7.5s7.5-3.357 7.5-7.5v-12.692l15.532 17.647c1.482 1.685 3.552 2.545 5.633 2.545 1.76 0 3.527-.616 4.952-1.87 3.109-2.736 3.412-7.476.675-10.585l-12.59-14.304c8.43-2.994 14.46-10.819 14.46-19.978zm-22.057 6.279c-1.548 0-4.059.01-6.532.021-.012-2.396-.027-10.059-.034-12.576h6.565c3.825 0 7.057 2.875 7.057 6.277.001 3.403-3.231 6.278-7.056 6.278z"/><path d="m415.515 243.292c0-11.732-9.895-21.277-22.058-21.277h-14.087c-.003 0-.006 0-.009 0s-.006 0-.008 0c-4.142 0-7.5 3.357-7.5 7.5v53.014c0 4.143 3.358 7.5 7.5 7.5s7.5-3.357 7.5-7.5v-12.693l15.533 17.648c1.482 1.685 3.552 2.545 5.633 2.545 1.76 0 3.527-.616 4.952-1.87 3.109-2.736 3.412-7.476.675-10.585l-12.59-14.304c8.43-2.994 14.459-10.819 14.459-19.978zm-22.057 6.279c-1.547 0-4.059.01-6.532.021-.012-2.396-.027-10.059-.034-12.576h6.565c3.826 0 7.058 2.875 7.058 6.277 0 3.403-3.232 6.278-7.057 6.278z"/></g></g></svg>
